<svg version="1.1" xmlns="http://www.w3.org/2000/svg" xmlns:xlink="http://www.w3.org/1999/xlink" x="0px" y="0px" width="100%" height="100%" viewBox="7.745 343.05 601.47 601.47" enable-background="new 7.745 343.05 601.47 601.47" xml:space="preserve"> <g id="steelframe"> <circle fill="#DDDDDD" stroke="#000000" stroke-miterlimit="10" cx="309.085" cy="643.844" r="261.426"/> </g> <g id="dartboard"> <g id="areas"> <g id="miss"> <path id="missa" fill="#2D2710" stroke="#000000" stroke-miterlimit="10" d="M605.141,643.945c0,163.752-132.747,296.5-296.5,296.5 c-163.752,0-296.5-132.748-296.5-296.5s132.748-296.5,296.5-296.5C472.394,347.445,605.141,480.193,605.141,643.945z M309.085,382.417c-144.382,0-261.426,117.044-261.426,261.426c0,144.381,117.044,261.426,261.426,261.426 c144.381,0,261.426-117.045,261.426-261.426C570.511,499.462,453.466,382.417,309.085,382.417z"/> </g> <g id="s"> <path id="s19" fill="#AD9F89" d="M252.194,779.041c-1.525-0.644-3.029-1.322-4.525-2.015l51.625-108.483 c1.588,0.623,3.279,1.172,4.998,1.472l-15.593,119.113c-12.545-1.75-24.748-5.108-36.541-10.087H252.194L252.194,779.041z M276.23,884.455l10.438-79.847c-13.939-1.938-27.516-5.669-40.561-11.186c-1.737-0.735-3.454-1.51-5.158-2.301l-34.605,72.709 c2.782,1.327,5.624,2.576,8.435,3.77c19.747,8.416,40.343,14.041,61.431,16.875L276.23,884.455z"/> <path id="s14" d="M164.106,623.44c1.755-12.544,5.119-24.764,10.087-36.503c0.644-1.524,1.322-3.03,2.016-4.526l108.484,51.625 c-0.646,1.589-1.142,3.252-1.472,4.976L164.106,623.44z M68.758,610.974l79.847,10.439c1.937-13.94,5.667-27.517,11.184-40.562 c0.735-1.737,1.508-3.453,2.3-5.158l-72.721-34.605c-1.301,2.782-2.57,5.583-3.771,8.435 c-8.356,19.725-14.006,40.344-16.819,61.453h-0.02V610.974z"/> <path id="s4" fill="#AD9F89" d="M412.886,540.348c9.646,9.685,17.805,20.462,24.367,32.206l-105.535,57.404 c-0.922-1.474-1.984-2.849-3.164-4.109l82.605-87.205c0.58,0.616,1.18,1.162,1.723,1.706h0.004V540.348z M480.873,472.329 c-1.184-1.184-2.383-2.347-3.586-3.502l-55.373,58.456c0.676,0.625,1.324,1.328,2.029,1.953 c10.719,10.698,19.76,22.726,27.023,35.787l70.742-38.492c-10.941-19.762-24.635-37.959-40.803-54.172L480.873,472.329z"/> <path id="s16" fill="#AD9F89" d="M205.604,747.63c-9.649-9.649-17.804-20.441-24.372-32.206L286.766,658 c0.921,1.484,1.953,2.811,3.202,4.108l-82.604,87.205c-0.612-0.594-1.207-1.14-1.755-1.684H205.604z M141.203,819.086 l55.374-58.458c-0.677-0.656-1.357-1.31-2.026-1.979c-10.719-10.72-19.77-22.711-27.051-35.786l-70.741,38.501 c10.962,19.838,24.601,38.034,40.845,54.229c1.196,1.227,2.402,2.397,3.573,3.524L141.203,819.086z"/> <path id="s9" fill="#AD9F89" d="M177.548,579.591c6.3-12.88,14.418-24.692,24.223-35.251l87.205,82.628 c-1.113,1.32-2.101,2.75-2.941,4.272L177.548,579.591z M163.43,572.87c7.006-14.36,16.053-27.524,26.994-39.282l-58.456-55.37 c-16.786,17.927-30.624,38.053-41.267,60.045L163.43,572.87z"/> <path id="s7" d="M244.846,775.685c-12.88-6.3-24.691-14.418-35.25-24.223l82.604-87.207c1.321,1.094,2.732,2.109,4.294,2.968 L244.846,775.685z M238.127,789.804c-14.36-7.006-27.526-16.055-39.283-26.994l-55.371,58.418 c17.928,16.791,38.034,30.614,60.058,41.267L238.127,789.804z"/> <path id="s8" d="M174.192,701.04c-3.926-9.283-6.852-18.865-8.774-28.67l118.107-22.004c0.422,1.718,1.014,3.359,1.718,4.922 l-105.53,57.422c-1.985-3.82-3.861-7.725-5.502-11.67H174.192L174.192,701.04z M95.258,758.646l70.744-38.493 c-2.253-4.238-4.331-8.577-6.213-13.028c-4.366-10.325-7.614-20.983-9.741-31.893l-79.169,14.759 c3.181,16.557,8.044,32.801,14.682,48.483c2.955,6.887,6.179,13.603,9.692,20.172H95.258z"/> <path id="s12" d="M205.604,540.348c9.649-9.649,20.442-17.804,32.207-24.371l57.424,105.51c-1.472,0.923-2.847,1.982-4.107,3.167 l-87.207-82.604c0.558-0.524,1.139-1.148,1.688-1.699h-0.004V540.348z M134.114,475.92l58.458,55.374 c0.656-0.678,1.31-1.357,1.979-2.026c10.719-10.719,22.71-19.769,35.788-27.053l-38.492-70.741 c-19.832,10.963-38.006,24.636-54.229,40.859c-1.184,1.243-2.374,2.416-3.469,3.613L134.114,475.92z"/> <path id="s1" fill="#AD9F89" d="M370.822,510.951l-51.623,108.484c-1.588-0.646-3.252-1.142-4.975-1.473l15.57-119.112 c12.545,1.718,24.76,5.153,36.473,10.085c1.557,0.644,3.037,1.348,4.521,2.016H370.822z M342.257,403.503l-10.438,79.816 c13.941,1.952,27.492,5.7,40.535,11.184c1.738,0.703,3.438,1.484,5.154,2.301l34.607-72.722 c-2.783-1.302-5.586-2.569-8.424-3.771c-19.727-8.353-40.322-13.976-61.412-16.809h-0.023V403.503z"/> <path id="s18" d="M373.642,512.293c12.881,6.325,24.68,14.448,35.223,24.224l-82.604,87.235c-1.32-1.112-2.75-2.101-4.273-2.941 L373.642,512.293z M380.361,498.175c14.361,7.029,27.492,16.089,39.283,26.994l55.371-58.454 c-17.928-16.788-38.053-30.627-60.043-41.268L380.361,498.175z"/> <path id="s20" d="M309.246,497.418c5.873,0,11.715,0.314,17.414,1.031l-15.572,119.114c-0.621-0.043-1.246-0.075-1.877-0.075 c-1.121,0-2.225,0.08-3.309,0.216L283.901,499.59C292.232,498.179,300.654,497.397,309.246,497.418z M266.323,405.044 l14.748,79.192c9.234-1.615,18.642-2.429,28.175-2.429c6.557,0,13.041,0.39,19.445,1.159l10.438-79.855 c-9.863-1.208-19.844-1.82-29.916-1.82c-14.497-0.029-28.788,1.22-42.923,3.756L266.323,405.044L266.323,405.044z"/> <path id="s5" fill="#AD9F89" d="M252.194,508.937c9.283-3.927,18.866-6.851,28.672-8.773l22,118.086 c-1.701,0.422-3.334,1.008-4.888,1.74l-57.422-105.53c3.787-1.986,7.695-3.861,11.6-5.521h0.038V508.937z M194.585,429.999 l38.495,70.744c4.235-2.254,8.577-4.331,13.028-6.214c10.325-4.367,20.986-7.613,31.894-9.742l-14.748-79.156 c-16.587,3.181-32.796,8.083-48.485,14.72c-6.902,2.93-13.613,6.131-20.173,9.651L194.585,429.999z"/> <path id="s3" d="M309.246,790.56c-5.873,0-11.692-0.351-17.445-1.029l15.568-119.116c0.623,0.079,1.252,0.079,1.877,0.079 c1.119,0,2.217-0.079,3.301-0.212l21.996,118.115C326.248,789.798,317.835,790.581,309.246,790.56z M352.15,882.937 l-14.744-79.174c-9.229,1.614-18.631,2.427-28.158,2.427c-6.555,0-13.05-0.393-19.47-1.157l-10.438,79.816 c9.859,1.173,19.835,1.796,29.912,1.82c14.518,0.049,28.816-1.198,42.873-3.731L352.15,882.937L352.15,882.937z"/> <path id="s10" d="M454.382,664.538c-1.754,12.544-5.119,24.762-10.086,36.502c-0.643,1.525-1.322,3.03-2.014,4.532 l-108.484-51.624c0.646-1.591,1.143-3.254,1.471-4.978L454.382,664.538z M549.732,677.003l-79.85-10.437 c-1.936,13.938-5.664,27.515-11.184,40.56c-0.732,1.739-1.51,3.454-2.299,5.159l72.721,34.599 c1.301-2.782,2.566-5.584,3.768-8.424c8.357-19.729,14.008-40.347,16.822-61.456L549.732,677.003L549.732,677.003z"/> <path id="s17" fill="#AD9F89" d="M366.296,779.041c-9.285,3.926-18.863,6.853-28.67,8.772l-22.002-118.106 c1.699-0.424,3.334-1.011,4.889-1.741l57.422,105.53c-3.785,2.009-7.695,3.885-11.602,5.544L366.296,779.041L366.296,779.041z M423.902,857.978l-38.494-70.744c-4.234,2.254-8.574,4.331-13.027,6.216c-10.326,4.365-20.984,7.612-31.893,9.742l14.746,79.191 c16.59-3.181,32.799-8.084,48.486-14.721c6.902-2.966,13.613-6.167,20.172-9.685H423.902z"/> <path id="s13" d="M444.296,586.939c3.928,9.294,6.873,18.9,8.748,28.67L334.939,637.61c-0.424-1.7-1.01-3.335-1.744-4.888 L438.726,575.3c2.035,3.79,3.912,7.696,5.553,11.64H444.296L444.296,586.939z M523.23,529.33l-70.742,38.503 c2.252,4.218,4.295,8.591,6.246,13.027c4.365,10.309,7.576,21.008,9.762,31.894l79.17-14.747 c-3.18-16.589-8.082-32.796-14.719-48.485c-2.973-6.905-6.197-13.619-9.709-20.191H523.23L523.23,529.33z"/> <path id="s2" d="M412.886,747.63c-9.65,9.648-20.443,17.804-32.207,24.371l-57.424-105.534c1.473-0.922,2.848-1.982,4.107-3.165 l87.205,82.604c-0.557,0.548-1.137,1.174-1.686,1.724L412.886,747.63L412.886,747.63z M484.375,812.031l-58.455-55.372 c-0.66,0.676-1.313,1.357-1.979,2.024c-10.723,10.72-22.715,19.77-35.789,27.053l38.49,70.757 c19.83-10.961,38.008-24.636,54.23-40.858c1.182-1.234,2.373-2.406,3.465-3.604H484.375L484.375,812.031z"/> <path id="s6" fill="#AD9F89" d="M335.531,640.68l118.113-22c1.441,8.278,2.188,16.713,2.188,25.303 c0,5.873-0.352,11.695-1.029,17.451l-119.115-15.571c0.045-0.623,0.076-1.246,0.076-1.879c-0.018-1.088-0.119-2.182-0.197-3.304 H335.531L335.531,640.68z M469.015,615.816c1.615,9.215,2.422,18.666,2.422,28.193c0,6.558-0.393,13.054-1.16,19.478 l79.859,10.438c1.207-9.861,1.818-19.843,1.818-29.918c0-14.526-1.266-28.857-3.773-42.923L469.015,615.816z"/> <path id="s11" fill="#AD9F89" d="M70.299,686.912c-2.506-14.065-3.774-28.396-3.774-42.923c0-10.075,0.612-20.056,1.821-29.918 l79.855,10.438c-0.766,6.425-1.159,12.923-1.159,19.479c0,9.527,0.781,18.899,2.421,28.174L70.299,686.912z M282.745,643.989 c0-0.633,0.029-1.257,0.073-1.879l-119.113-15.571c-0.681,5.755-1.031,11.576-1.031,17.451c0,8.59,0.704,17.026,2.187,25.303 l118.114-22.001c-0.15-1.116-0.206-2.211-0.206-3.303H282.745z"/> <path id="s15" fill="#AD9F89" d="M440.941,708.387c-6.301,12.879-14.418,24.691-24.227,35.253l-87.201-82.626 c1.113-1.319,2.1-2.749,2.943-4.272L440.941,708.387z M455.062,715.106c-7.006,14.361-16.055,27.524-26.996,39.284l58.453,55.372 c16.789-17.928,30.627-38.054,41.27-60.044L455.062,715.106z"/> </g> <g id="d"> <path id="d2" fill="#ED3737" d="M482.531,817.273c-16.385,16.385-34.74,30.191-54.77,41.26l5.887,10.778 c23.973-13.198,42.48-27.429,61.398-47.206l-8.971-8.499c-1.172,1.26-2.361,2.431-3.531,3.667H482.531z"/> <path id="d17" fill="#4F9962" d="M404.634,869.793c-15.846,6.702-32.215,11.653-48.971,14.864l2.254,12.106 c26.883-5.143,48.883-12.954,72.984-25.919l-5.877-10.807c-6.621,3.563-13.391,6.844-20.42,9.754L404.634,869.793 L404.634,869.793z"/> <path id="d15" fill="#4F9962" d="M488.22,811.368l8.977,8.505c18.723-19.959,31.928-39.211,43.809-63.867l-11.104-5.285 c-10.748,22.208-24.709,42.515-41.658,60.647H488.22z"/> <path id="d6" fill="#4F9962" d="M562.587,598.387l-12.094,2.254c2.533,14.213,3.826,28.661,3.826,43.345 c0,10.175-0.617,20.259-1.84,30.22l12.219,1.598c3.4-27.126,2.74-50.479-2.102-77.416H562.587L562.587,598.387z"/> <path id="d14" fill="#ED3737" d="M83.441,548.599c1.214-2.871,2.496-5.704,3.813-8.518l-11.115-5.289 c-11.639,24.771-18.25,47.16-21.93,74.279l12.225,1.599c2.893-21.351,8.592-42.125,17.027-62.071H83.441z"/> <path id="d10" fill="#ED3737" d="M535.048,739.378c-1.217,2.871-2.496,5.706-3.813,8.519l11.111,5.312 c11.641-24.767,18.252-47.155,21.932-74.279l-12.225-1.597c-2.895,21.327-8.59,42.103-17.027,62.049L535.048,739.378 L535.048,739.378z"/> <path id="d11" fill="#4F9962" d="M64.183,643.989c0-10.177,0.619-20.259,1.839-30.222l-12.216-1.598 c-3.415,27.155-2.784,50.529,2.109,77.421l12.093-2.253c-2.543-14.221-3.835-28.669-3.835-43.351L64.183,643.989L64.183,643.989z "/> <path id="d19_1_" fill="#4F9962" d="M213.855,869.793c-2.871-1.215-5.705-2.496-8.519-3.813l-5.288,11.089 c24.769,11.639,47.173,18.275,74.271,21.93l1.597-12.223c-21.33-2.868-42.118-8.571-62.033-16.983H213.855L213.855,869.793z"/> <path id="d8" fill="#ED3737" d="M83.441,739.378c-6.704-15.848-11.654-32.214-14.864-48.968l-12.101,2.265 c5.144,26.866,12.964,48.889,25.929,72.983l10.807-5.88c-3.559-6.607-6.859-13.399-9.75-20.398h-0.021V739.378z"/> <path id="d16" fill="#4F9962" d="M135.959,817.273c-16.385-16.385-30.191-34.738-41.26-54.766l-10.812,5.857 c13.199,23.977,27.412,42.485,47.171,61.402l8.499-8.972c-1.186-1.163-2.364-2.336-3.613-3.521L135.959,817.273L135.959,817.273z "/> <path id="d7" fill="#ED3737" d="M141.863,822.966l-8.503,8.977c19.96,18.743,39.205,31.943,63.885,43.81l5.284-11.104 c-22.23-10.73-42.528-24.711-60.648-41.683H141.863L141.863,822.966z"/> <path id="d3" fill="#ED3737" d="M309.246,889.052c-10.176,0-20.252-0.619-30.212-1.837l-1.607,12.261 c11.405,1.407,22.024,2.187,32.487,2.209c0.002,0,0,0,0,0c14.494,0,29.207-1.443,44.926-4.288l-2.27-12.186 C338.38,887.733,323.925,889.062,309.246,889.052z"/> <path id="d1" fill="#4F9962" d="M404.634,418.187c2.871,1.249,5.701,2.499,8.512,3.813l5.291-11.113 c-24.773-11.641-47.162-18.251-74.279-21.928l-1.598,12.225c21.344,2.891,42.131,8.591,62.045,17.005h0.029V418.187z"/> <path id="d20" fill="#ED3737" d="M309.246,398.928c10.176,0,20.227,0.625,30.223,1.839l1.596-12.218 c-11.406-1.434-22.055-2.131-32.498-2.131c-14.494,0-29.205,1.385-44.922,4.23l2.253,12.105 C280.099,400.243,294.562,398.917,309.246,398.928z"/> <path id="d18" fill="#ED3737" d="M476.626,465.014l8.502-8.977c-19.961-18.724-39.211-31.929-63.867-43.809l-5.283,11.089 c22.213,10.744,42.512,24.724,60.631,41.696H476.626L476.626,465.014z"/> <path id="d5" fill="#4F9962" d="M213.855,418.187c15.848-6.704,32.217-11.655,48.971-14.866l-2.255-12.101 c-26.882,5.143-48.881,12.955-72.985,25.92l5.88,10.805c6.62-3.568,13.392-6.851,20.42-9.759H213.855z"/> <path id="d12" fill="#ED3737" d="M135.959,470.704c16.384-16.386,34.739-30.191,54.766-41.26l-5.883-10.811 c-23.978,13.199-42.486,27.427-61.401,47.205l8.972,8.499c1.171-1.227,2.359-2.397,3.53-3.631h0.017V470.704z"/> <path id="d9" fill="#4F9962" d="M130.269,476.607l-8.976-8.504c-18.725,19.961-31.929,39.213-43.81,63.869l11.104,5.31 c10.747-22.233,24.709-42.541,41.657-60.675H130.269L130.269,476.607z"/> <path id="d4" fill="#4F9962" d="M482.531,470.704c16.385,16.4,30.221,34.753,41.236,54.766l10.811-5.882 c-13.199-23.977-27.428-42.484-47.205-61.402l-8.5,8.972c1.244,1.188,2.426,2.359,3.672,3.547H482.531L482.531,470.704z"/> <path id="d13" fill="#ED3737" d="M535.048,548.599c6.701,15.854,11.637,32.255,14.838,48.97l12.102-2.255 c-5.145-26.885-12.959-48.884-25.922-72.983l-10.805,5.879c3.574,6.597,6.873,13.391,9.766,20.389L535.048,548.599 L535.048,548.599z"/> </g> <g id="t"> <path id="t10" fill="#ED3737" d="M467.56,666.262l-10.854-1.418c-1.783,12.752-5.199,25.174-10.252,37.097 c-0.656,1.555-1.352,3.094-2.057,4.621l9.887,4.705c0.775-1.676,1.535-3.36,2.258-5.064c5.434-12.854,9.135-26.209,11.008-39.938 L467.56,666.262L467.56,666.262z"/> <path id="t13" fill="#ED3737" d="M450.427,568.945l-9.617,5.233c2.045,3.826,3.904,7.809,5.621,11.871 c3.992,9.449,6.953,19.213,8.904,29.155l10.764-2.006c-2.098-10.741-5.295-21.239-9.596-31.408 c-1.814-4.419-3.871-8.714-6.057-12.845L450.427,568.945L450.427,568.945z"/> <path id="t3" fill="#ED3737" d="M336.976,801.461l-2.004-10.767c-8.434,1.467-17.025,2.208-25.727,2.186 c-5.975,0-11.893-0.355-17.748-1.049l-1.418,10.856c6.32,0.781,12.73,1.171,19.134,1.171c9.412-0.003,18.695-0.782,27.756-2.399 h0.006V801.461z"/> <path id="t2" fill="#ED3737" d="M424.216,755.046l-7.949-7.528c-0.572,0.59-1.141,1.186-1.727,1.796 c-9.811,9.811-20.781,18.097-32.742,24.774l5.232,9.617c12.877-7.177,24.691-16.092,35.25-26.651 c0.654-0.682,1.299-1.306,1.924-2.008H424.216L424.216,755.046z"/> <path id="t8" fill="#ED3737" d="M168.062,719.033l9.617-5.232c-2.045-3.853-3.934-7.8-5.645-11.848 c-3.994-9.439-6.967-19.182-8.919-29.152l-10.762,2.003c2.097,10.777,5.312,21.242,9.606,31.396 c1.843,4.407,3.896,8.702,6.085,12.834H168.062z"/> <path id="t14" fill="#ED3737" d="M150.929,621.717l10.855,1.418c1.782-12.753,5.204-25.175,10.252-37.112 c0.659-1.558,1.35-3.094,2.058-4.621l-9.887-4.705c-0.777,1.676-1.536,3.357-2.258,5.077 c-5.434,12.854-9.134,26.209-11.009,39.942L150.929,621.717L150.929,621.717z"/> <path id="t7" fill="#ED3737" d="M243.839,777.801c-13.1-6.403-25.117-14.661-35.855-24.638l-7.528,7.966 c11.578,10.777,24.522,19.682,38.659,26.578L243.839,777.801z"/> <path id="t9" fill="#4F9962" d="M175.432,578.583c6.407-13.102,14.663-25.117,24.638-35.855l-7.947-7.526 c-10.772,11.577-19.68,24.54-26.579,38.678L175.432,578.583z"/> <path id="t4" fill="#4F9962" d="M420.3,529.019l-7.525,7.947c0.59,0.547,1.17,1.172,1.797,1.719 c9.807,9.839,18.117,20.773,24.754,32.743l9.619-5.233c-7.176-12.88-16.09-24.692-26.652-35.252 C421.628,530.278,420.927,529.652,420.3,529.019L420.3,529.019z"/> <path id="t17" fill="#4F9962" d="M384.289,785.17l-5.232-9.617c-3.854,2.047-7.801,3.936-11.846,5.624 c-9.443,3.992-19.186,6.966-29.156,8.92l2.002,10.762c10.746-2.097,21.242-5.292,31.412-9.595 c4.379-1.855,8.689-3.887,12.828-6.092L384.289,785.17L384.289,785.17z"/> <path id="t15" fill="#4F9962" d="M443.058,709.395c-6.404,13.101-14.662,25.117-24.643,35.856l7.947,7.497 c10.773-11.578,19.682-24.541,26.582-38.679L443.058,709.395z"/> <path id="t18" fill="#ED3737" d="M379.353,500.291l-4.705,9.887c13.102,6.404,25.15,14.682,35.848,24.638l7.529-7.946 c-11.57-10.806-24.512-19.708-38.646-26.58L379.353,500.291L379.353,500.291z"/> <path id="t20" fill="#ED3737" d="M281.5,486.521l2.005,10.765c8.438-1.468,17.031-2.211,25.738-2.211 c5.975,0,11.869,0.391,17.729,1.05l1.416-10.856c-6.324-0.753-12.719-1.14-19.174-1.14c-9.357-0.007-18.638,0.774-27.697,2.393 H281.5L281.5,486.521z"/> <path id="t5" fill="#4F9962" d="M234.2,502.807l5.233,9.617c3.853-2.045,7.801-3.934,11.847-5.645 c9.44-3.994,19.184-6.966,29.155-8.92l-2.003-10.764c-10.743,2.097-21.242,5.294-31.41,9.606 c-4.379,1.866-8.691,3.896-12.83,6.103h0.008V502.807z"/> <path id="t1" fill="#4F9962" d="M331.517,485.674l-1.418,10.855c12.754,1.795,25.148,5.232,37.096,10.23 c1.557,0.624,3.125,1.328,4.609,2.058l4.705-9.887c-1.676-0.777-3.359-1.536-5.064-2.258 c-12.822-5.443-26.193-9.115-39.939-10.999H331.517L331.517,485.674z"/> <path id="t12" fill="#ED3737" d="M194.273,532.933l7.948,7.527c0.572-0.591,1.144-1.185,1.726-1.768 c9.809-9.811,20.782-18.097,32.743-24.774l-5.232-9.617c-12.88,7.177-24.692,16.092-35.25,26.632 c-0.654,0.672-1.3,1.298-1.925,1.999L194.273,532.933L194.273,532.933z"/> <path id="t6" fill="#4F9962" d="M455.947,618.249c1.469,8.434,2.188,17.026,2.188,25.74c0,5.977-0.359,11.897-1.053,17.728 l10.857,1.418c0.752-6.324,1.141-12.72,1.141-19.174c0-9.387-0.803-18.649-2.391-27.743L455.947,618.249z"/> <path id="t11" fill="#4F9962" d="M162.542,669.729c-1.468-8.439-2.209-17.033-2.209-25.74c0-5.978,0.356-11.898,1.049-17.756 l-10.855-1.418c-0.752,6.323-1.141,12.717-1.141,19.172c0,9.372,0.781,18.665,2.421,27.744L162.542,669.729z"/> <path id="t19" fill="#4F9962" d="M286.973,802.306l1.419-10.854c-12.753-1.783-25.174-5.203-37.111-10.251 c-1.557-0.66-3.093-1.353-4.621-2.058l-4.704,9.886c1.675,0.781,3.358,1.563,5.077,2.265 c12.837,5.457,26.209,9.127,39.955,11.013H286.973L286.973,802.306z"/> <path id="t16" fill="#4F9962" d="M198.188,758.961l7.528-7.947c-0.591-0.573-1.185-1.144-1.768-1.727 c-9.809-9.809-18.097-20.782-24.774-32.744l-9.616,5.232c7.175,12.885,16.088,24.678,26.631,35.221 C196.861,757.7,197.485,758.324,198.188,758.961L198.188,758.961z"/> </g> <g id="bull"> <path id="Outer" fill="#4F9962" d="M333.798,643.989c0,13.343-10.82,24.161-24.164,24.161c-13.345,0-24.163-10.807-24.132-24.161 c0.031-13.354,10.819-24.162,24.162-24.162c13.344,0,24.135,10.808,24.104,24.162H333.798z M309.636,631.183 c-7.074,0-12.807,5.733-12.807,12.808s5.733,12.808,12.807,12.807c7.076-0.002,12.807-5.733,12.807-12.807 C322.443,636.918,316.708,631.182,309.636,631.183z"/> <circle id="Bull" fill="#ED3737" cx="309.636" cy="643.989" r="10.7"/> </g> </g> <g id="score"> <path id="score_1_" fill="#CCCCCC" d="M286.431,369.755l6.9-5.267c1.712-1.343,2.37-2.213,2.37-3.319 c0-1.159-0.816-1.871-2.054-1.871s-2.213,0.712-3.661,2.37l-3.451-2.87c1.975-2.554,3.924-3.95,7.507-3.95 c4.029,0,6.794,2.421,6.794,5.872v0.053c0,2.95-1.527,4.477-4.266,6.453l-3.16,2.213h7.611v4.162h-14.591L286.431,369.755 L286.431,369.755z M303.07,364.435v-0.053c0-5.216,3.32-9.587,8.561-9.587c5.238,0,8.506,4.296,8.512,9.534v0.053 c0,5.214-3.293,9.587-8.561,9.606c-5.27-0.013-8.506-4.307-8.506-9.554H303.07L303.07,364.435z M315.003,364.435v-0.053 c0-2.922-1.398-5.058-3.424-5.058c-2.029,0-3.373,2.054-3.373,4.999v0.051c0,2.968,1.404,5.077,3.438,5.058 c2.043,0.014,3.379-2.095,3.379-4.998L315.003,364.435L315.003,364.435z M209.2,390.23l1.118-4.361 c1.908,0.508,3.469,0.516,4.869-0.172c1.514-0.743,2.063-1.951,1.482-3.133l-0.022-0.047c-0.581-1.182-1.934-1.429-3.376-0.72 c-1.017,0.499-1.693,1.271-2.241,2.127l-3.463-0.179l-3.644-8.625l11.066-5.428l1.855,3.784l-7.447,3.654l1.091,2.602 c0.581-0.726,1.247-1.345,2.359-1.889c2.978-1.462,6.487-1.129,8.255,2.464l0.023,0.047c1.808,3.687,0.074,7.267-3.943,9.261 c-2.906,1.422-5.427,1.399-7.989,0.618L209.2,390.23z M126.618,424.629l-2.112,2.387l-3.091-2.646l3.503-4.383l3.02-2.161 l10.801,15.074l-4.091,2.926L126.618,424.629z M138.664,428.255l2.548-8.299c0.609-2.088,0.64-3.18-0.001-4.078 c-0.674-0.942-1.751-1.046-2.759-0.325c-1.007,0.72-1.386,1.866-1.598,4.058l-4.477-0.329c0.121-3.226,0.895-5.495,3.808-7.579 c3.277-2.344,6.92-2.002,8.982,0.824l0.03,0.043c1.715,2.421,1.328,4.529,0.313,7.729l-1.284,3.637l6.19-4.427l2.421,3.358 l-11.867,8.487L138.664,428.255z M77.233,493.505l-1.708-3.911c1.522-0.534,2.57-1.308,3.355-2.555 c1.123-1.783,0.48-3.527-1.399-4.991c0.251,1.278,0.063,2.717-0.81,4.099c-1.91,3.029-5.172,4.057-8.222,2.131l-0.046-0.029 c-3.452-2.175-4.01-6.233-1.762-9.797c1.434-2.271,2.919-3.204,4.846-3.64c1.83-0.433,4.068-0.077,6.95,1.768l0.043-0.003 c5.1,3.21,6.955,7.925,4.027,12.628c-1.458,2.385-3.282,3.544-5.259,4.299L77.233,493.505z M73.67,479.55l-0.044-0.027 c-1.202-0.758-2.663-0.464-3.522,0.894c-0.857,1.358-0.483,2.778,0.743,3.502l0.044,0.026c1.182,0.771,2.617,0.427,3.455-0.932 C75.181,481.651,74.804,480.242,73.67,479.55L73.67,479.55z M31.369,573.043l-0.332,3.17l-4.053-0.354l0.3-5.604l1.2-3.515 l17.571,6l-1.625,4.764L31.369,573.043z M46.512,560.319l-2.885,8.449l-3.687-0.367l-7.677-12.724l1.669-4.886l10.567,3.609 l0.757-2.219l3.613,1.249l-0.756,2.219l3.39,1.156l-1.601,4.686L46.512,560.319z M42.922,559.096l-5.009-1.711l3.588,5.872 L42.922,559.096z M23.186,658.949l0.654,3.119l-3.967,0.9l-1.426-5.427l0.068-3.714l18.563,0.348l-0.095,5.027l-13.797-0.27 V658.949L23.186,658.949z M23.393,647.826l0.653,3.123l-3.967,0.9l-1.427-5.426l0.068-3.714l18.563,0.345l-0.094,5.03 L23.393,647.826z M39.969,732.707l0.05,0.002c2.166-0.565,3.765,0.24,5.08,1.939c0.405-1.577,1.297-2.953,3.236-3.458l0.05-0.016 c2.854-0.746,5.681,1.429,6.727,5.429c1.046,4.001-0.357,7.28-3.21,8.025l-0.05,0.014c-1.937,0.507-3.351-0.278-4.48-1.432 c-0.368,2.027-1.239,3.588-3.457,4.168l-0.051,0.014c-3.185,0.834-6.035-1.702-7.131-5.964c-1.188-4.286,0.15-7.91,3.226-8.722 H39.969z M50.078,740.245l0.05,0.002c0.994-0.26,1.665-1.334,1.313-2.684c-0.353-1.342-1.415-1.928-2.438-1.706l-0.05,0.015 c-1.121,0.293-1.734,1.378-1.389,2.703C47.916,739.858,48.973,740.521,50.078,740.245L50.078,740.245z M43.043,742.492 l0.051-0.014c1.146-0.302,1.655-1.578,1.264-3.081c-0.393-1.504-1.461-2.397-2.581-2.065l-0.05,0.015 c-1.07,0.279-1.775,1.443-1.341,3.098C40.82,742.101,41.974,742.77,43.043,742.492L43.043,742.492L43.043,742.492z M82.359,804.893l-2.339-2.168l2.713-3.031l4.306,3.597l2.092,3.066l-15.335,10.471l-2.836-4.156l11.399-7.79L82.359,804.893 L82.359,804.893z M78.127,820.107c0.358-1.902,1.572-3.814,4.422-5.76l0.043-0.029c4.743-3.237,9.927-3.396,13.176,1.367 c1.456,2.131,1.879,4.01,1.786,6.211l-4.332,0.055c0.058-1.406-0.069-2.576-0.926-3.809c-1.217-1.801-3.118-1.81-5.229-0.66 c1.16,0.388,2.394,0.98,3.417,2.482c1.826,2.676,1.733,6.182-1.313,8.262l-0.043,0.028c-3.415,2.333-7.339,1.023-9.598-2.296 c-1.438-2.18-1.729-4.057-1.41-5.881L78.127,820.107z M86.128,824.277l0.043-0.029c1.088-0.744,1.393-2.165,0.488-3.514 c-0.906-1.35-2.29-1.49-3.355-0.788l-0.043,0.03c-1.11,0.755-1.415,2.176-0.51,3.504c0.884,1.331,2.306,1.571,3.402,0.797H86.128z M150.468,873.271l-6.784-5.176l2.604-3.413l11.284,8.611l-2.333,3.057l-15.32,6.662l-4.48-3.419L150.468,873.271z M220.314,905.693l-3.179-0.229l0.225-4.063l5.61,0.118l3.551,1.088l-5.441,17.754l-4.808-1.475l4.041-13.213L220.314,905.693z M224.659,919.537l3.325-2.668c0.915,1.328,1.936,2.134,3.344,2.566c2.015,0.618,3.53-0.46,4.451-2.658 c-1.167,0.58-2.603,0.772-4.166,0.293c-3.426-1.077-5.283-3.956-4.202-7.378l0.015-0.049c1.195-3.903,4.964-5.505,8.992-4.271 c2.567,0.786,3.855,1.981,4.782,3.726c0.898,1.651,1.113,3.921,0.118,7.169l-0.017,0.049c-1.767,5.766-5.84,8.815-11.129,7.195 c-2.631-0.822-4.296-2.225-5.479-3.976L224.659,919.537z M237.189,912.441l0.015-0.051c0.417-1.352-0.215-2.725-1.804-3.192 c-1.535-0.471-2.775,0.251-3.194,1.611l-0.016,0.051c-0.409,1.335,0.272,2.616,1.808,3.086c1.557,0.52,2.832-0.251,3.161-1.504 L237.189,912.441z M307.617,931.783l3.26-3.164c1.297,1.359,2.682,2.144,4.367,2.166c1.447,0.021,2.381-0.702,2.395-1.832 l0.002-0.054c0.018-1.173-1.061-1.929-3.016-1.938l-2.16-0.031l-0.699-2.669l4.293-3.772l-7.057-0.098l0.059-4.135l13.322,0.188 l-0.051,3.661l-4.451,3.704c2.625,0.615,4.736,2.119,4.695,5.255l-0.002,0.053c-0.051,3.738-3.09,6.095-7.197,6.038 c-3.518-0.02-6.012-1.365-7.777-3.368L307.617,931.783z M393.929,909.103l-2.67,1.745l-2.283-3.34l4.537-3.308l3.48-1.288 l6.445,17.415l-4.717,1.744L393.929,909.103z M409.345,903.033l-8.004,2.96l-1.486-4.025l13.311-4.924l1.34,3.609l-2.57,16.507 l-5.287,1.957L409.345,903.033z M476.951,874.408l2.301-8.37c0.549-2.104,0.549-3.195-0.123-4.076 c-0.701-0.922-1.779-0.995-2.766-0.244c-0.986,0.749-1.332,1.906-1.48,4.103l-4.484-0.195c0.025-3.229,0.732-5.521,3.584-7.688 c3.207-2.439,6.857-2.207,8.959,0.559l0.031,0.042c1.789,2.385,1.477,4.49,0.514,7.719l-1.178,3.675l6.057-4.608l2.518,3.276 l-11.613,8.833L476.951,874.408z M533.056,807.601l-1.063,3.005l-3.859-1.294l1.602-5.375l1.99-3.137l15.678,9.945l-2.693,4.232 L533.056,807.601z M546.476,807.444l-1.326-4.303c1.873-0.59,3.256-1.396,4.09-2.709c0.902-1.423,0.738-2.742-0.373-3.447 l-0.045-0.026c-1.109-0.706-2.391-0.209-3.252,1.148c-0.609,0.954-0.781,1.967-0.803,2.983l-3.047,1.653l-7.609-5.45l6.604-10.41 l3.557,2.258l-4.443,7.005l2.273,1.63c0.117-0.924,0.361-1.798,1.021-2.844c1.781-2.802,4.943-4.354,8.322-2.207l0.041-0.004 c3.471,2.205,3.836,6.172,1.428,9.943c-1.713,2.788-3.895,4.133-6.414,4.775L546.476,807.444z M389.427,370.572l-3.176-0.286 l0.297-4.059l5.605,0.221l3.531,1.15l-5.75,17.654l-4.783-1.558L389.427,370.572z M463.24,402.684l-2.926-1.258l1.541-3.765 l5.26,1.952l3,2.191l-10.951,14.993l-4.063-2.968L463.24,402.684z M464.181,414.167l0.029-0.043 c1.322-1.807,3.07-2.194,5.162-1.708c-0.682-1.477-0.861-3.108,0.32-4.724l0.029-0.043c1.742-2.381,5.305-2.484,8.645-0.044 c3.336,2.421,4.295,5.857,2.576,8.278l-0.029,0.043c-1.182,1.617-2.789,1.941-4.404,1.74c0.998,1.795,1.328,3.565-0.043,5.416 l-0.031,0.079c-1.939,2.658-5.752,2.517-9.324-0.092c-3.566-2.675-4.846-6.346-2.895-8.901h-0.035V414.167z M472.748,419.806 l0.029-0.043c0.699-0.956,0.287-2.269-0.967-3.183c-1.254-0.917-2.629-0.91-3.328,0.047l-0.029,0.043 c-0.656,0.892-0.463,2.264,0.936,3.28c1.365,0.991,2.719,0.757,3.342-0.145H472.748z M476.781,413.618l0.029-0.043 c0.604-0.831,0.445-2.087-0.678-2.91c-1.129-0.824-2.361-0.613-2.965,0.216l-0.033,0.043c-0.68,0.934-0.471,2.187,0.627,2.968 c1.113,0.801,2.328,0.644,3.033-0.273h-0.014V413.618z M528.308,475.758l-5.217-7.243l2.434-2.793l14.822,1.107l3.018,4.217 l-9.061,6.525l1.369,1.902l-3.098,2.233l-1.371-1.903l-2.906,2.093l-2.895-4.019L528.308,475.758z M531.388,473.54l4.295-3.094 l-6.867-0.475L531.388,473.54z M576.162,537.247l-1.709-2.689l3.398-2.24l3.246,4.578l1.242,3.5l-17.496,6.209l-1.684-4.741 L576.162,537.247z M568.328,547.769l4.102,1.955c-0.826,1.69-1.078,3.261-0.514,4.849c0.486,1.328,1.484,1.952,2.576,1.642 l0.049-0.019c1.117-0.396,1.426-1.651,0.783-3.465l-0.723-2.035l2.262-1.585l5.016,2.717l-2.361-6.65l3.898-1.382l4.455,12.574 l-3.449,1.224l-5.021-2.885c0.336,2.677-0.342,5.18-3.295,6.229l-0.047,0.018c-3.525,1.25-6.789-0.777-8.162-4.649 c-1.211-3.386-0.83-6.197,0.418-8.535h0.014V547.769L568.328,547.769z M582.656,633.565c1.355-1.384,3.426-2.301,6.875-2.34h0.051 c5.744-0.061,10.154,2.656,10.234,8.451c0.025,2.581-0.666,4.379-1.963,6.158l-3.633-2.358c0.83-1.141,1.373-2.2,1.355-3.674 c-0.023-2.16-1.641-3.224-3.961-3.436c0.748,0.938,1.484,2.109,1.484,3.96c0.033,3.238-1.992,6.104-5.678,6.146h-0.055 c-4.133,0.043-6.67-3.222-6.713-7.252c-0.072-2.582,0.729-4.301,1.979-5.656L582.656,633.565L582.656,633.565z M586.98,641.5 l0.053-0.002c1.316-0.015,2.357-1.025,2.344-2.632c-0.02-1.607-1.055-2.544-2.373-2.528h-0.053 c-1.342,0.016-2.387,1.025-2.367,2.656c0.018,1.55,1.016,2.487,2.42,2.507L586.98,641.5L586.98,641.5z M569.164,731.322 l-0.225,3.179l-4.063-0.22l0.111-5.609l1.08-3.553l17.764,5.412l-1.467,4.812L569.164,731.322z M575.902,725.115l-0.049-0.016 c-4.99-1.521-8.203-5.968-6.676-10.982c1.527-5.012,6.611-6.877,11.6-5.356l0.045,0.016c4.99,1.484,8.203,5.936,6.641,11.013 c-1.498,5.007-6.611,6.88-11.529,5.327L575.902,725.115L575.902,725.115z M579.378,713.703l-0.051-0.015 c-2.795-0.853-5.24-0.141-5.832,1.795c-0.594,1.953,1.014,3.827,3.824,4.684l0.051,0.017c2.822,0.859,5.234,0.155,5.836-1.801 c0.576-1.945-1.023-3.819-3.836-4.68H579.378z"/> </g> </g> </svg>